<svg xmlns="http://www.w3.org/2000/svg" viewBox="0 0 151.929 28"><defs><style>.cls-1{fill:#fff;fill-rule:evenodd}</style></defs><g id="Group_1154" data-name="Group 1154" transform="translate(-151.819 -24.871)"><path id="Path_15" data-name="Path 15" class="cls-1" d="M15.6,48.352a9.371,9.371,0,0,1,2.562,6.736,9.464,9.464,0,0,1-1.575,5.446C13.51,64.784,6.6,65.429,2.77,61.9A9.177,9.177,0,0,1,0,55.088a9.08,9.08,0,0,1,2.789-6.717c3.34-3.112,9.506-3.207,12.808-.019Zm-2.808,1.556a8.617,8.617,0,0,1,1.461,5.18,9.624,9.624,0,0,1-.778,4.288,4.722,4.722,0,0,1-7.988.93,8.49,8.49,0,0,1-1.67-5.218,8.525,8.525,0,0,1,1.461-5.256,4.907,4.907,0,0,1,7.514.076Z" transform="translate(151.819 -12.4)"/><path id="Path_16" data-name="Path 16" class="cls-1" d="M250.9,48.352a10.166,10.166,0,0,1,.987,12.182c-3.074,4.25-9.981,4.9-13.813,1.366a9.238,9.238,0,0,1-2.77-6.812,9.08,9.08,0,0,1,2.789-6.717c3.34-3.112,9.506-3.207,12.808-.019Zm-2.808,1.556a8.617,8.617,0,0,1,1.461,5.18,9.624,9.624,0,0,1-.778,4.288,4.722,4.722,0,0,1-7.988.93,8.49,8.49,0,0,1-1.67-5.218,8.525,8.525,0,0,1,1.461-5.256,4.907,4.907,0,0,1,7.514.076Z" transform="translate(-38.834 -12.4)"/><path id="Path_17" data-name="Path 17" class="cls-1" d="M720.6,48.352a10.165,10.165,0,0,1,.987,12.182c-3.074,4.25-9.981,4.9-13.813,1.366A9.238,9.238,0,0,1,705,55.088a9.08,9.08,0,0,1,2.789-6.717c3.34-3.112,9.506-3.207,12.808-.019Zm-2.808,1.556a8.617,8.617,0,0,1,1.461,5.18,9.625,9.625,0,0,1-.778,4.288,4.722,4.722,0,0,1-7.988.93,8.49,8.49,0,0,1-1.67-5.218,8.525,8.525,0,0,1,1.461-5.256,4.908,4.908,0,0,1,7.514.076Z" transform="translate(-419.411 -12.4)"/><path id="Path_18" data-name="Path 18" class="cls-1" d="M406.7,48.3h3.795V65.529H406.7Z" transform="translate(-177.712 -14.264)"/><path id="Path_19" data-name="Path 19" class="cls-1" d="M670.3,48.3h3.795V65.529H670.3Z" transform="translate(-391.295 -14.264)"/><path id="Path_20" data-name="Path 20" class="cls-1" d="M622.613,47.333v2.182c-1.878-.474-3.377-.4-4.269.342a2.7,2.7,0,0,0-.892,1.67,6.5,6.5,0,0,0-.057,1.214V64.561H613.6V53.272a6.122,6.122,0,0,1,2.125-4.99c1.613-1.214,4-1.4,6.888-.949Z" transform="translate(-345.354 -13.297)"/><path id="Path_21" data-name="Path 21" class="cls-1" d="M355.387,41.538l-.474-1.916c-1.879.474-3.378.4-4.269-.342a2.7,2.7,0,0,1-.892-1.67,6.507,6.507,0,0,1-.057-1.214V26.51h5.484V24.29h-5.484V21.33c.057-2.22-1.4-2.884-3.795-2.637V35.883a6.122,6.122,0,0,0,2.125,4.99c1.594,1.214,4.231,1.423,7.362.664Z" transform="translate(-128.448 9.765)"/><path id="Path_22" data-name="Path 22" class="cls-1" d="M454.714,63.045c-3.472,1.48-8.482,1.063-10.872-.873-1.9-1.518-2.941-4-2.941-7.286a9.08,9.08,0,0,1,2.789-6.717c2.675-2.5,7.248-3.036,10.55-1.727v2.315a6.967,6.967,0,0,0-7.381.474c-1.5,1.252-2.049,3.4-2.03,5.541a8.551,8.551,0,0,0,1.632,5.351,5.536,5.536,0,0,0,4.687,1.651,6.3,6.3,0,0,0,2.96-.835l.607,2.106Z" transform="translate(-205.422 -12.198)"/><path id="Path_23" data-name="Path 23" class="cls-1" d="M520.522,27.578V25.3c5.047-1.518,7.666-3.586,9.43-5.9h3.093a14.472,14.472,0,0,1-6.565,5.142,9.825,9.825,0,0,1,4.421.854,5.255,5.255,0,0,1,2.884,4.08,14.545,14.545,0,0,1,.133,2.41V42.3h-.588c-1.8,0-2.846-.607-3-2.068h0a7.149,7.149,0,0,1-5.427,2.372,6.571,6.571,0,0,1-4.516-1.423,4.826,4.826,0,0,1-1.5-3.491,5.1,5.1,0,0,1,2.789-4.876,10.958,10.958,0,0,1,5.408-1.233l3.112.019V30.538a3.948,3.948,0,0,0-.626-2.258,3.8,3.8,0,0,0-1.518-1.29c-1.765-.8-4.4-.474-7.533.588Zm9.677,6.091h-2.5a6.57,6.57,0,0,0-4.079,1.082,3.223,3.223,0,0,0-1.044,2.751,2.888,2.888,0,0,0,1.537,2.713,3.259,3.259,0,0,0,1.4.342,4.834,4.834,0,0,0,4.44-2.884,3.63,3.63,0,0,0,.247-1.347V33.669Z" transform="translate(-268.613 9.152)"/><path id="Path_24" data-name="Path 24" class="cls-1" d="M120.47,2.313h-1.29c-.019,0-.019,0-.038-.019h0c-.019,0-.038,0-.038-.019h-.019c-.019,0-.019,0-.038-.019h-.019l-.038-.019h-.019l-.038-.019h-.019l-.038-.019h-.019l-.038-.019h0l-.019-.019h-.019l-.019-.019h0l-.019-.019h-.019l-.038-.019-.019-.019-.019-.019h0l-.019-.019h0l-.019-.019-.019-.019-.038-.019-.019-.019-.019-.019h0l-.019-.019h0l-.019-.019h0l-.038-.038h0l-.019-.019-.019-.019-.019-.019h0l-.038-.038h0l-.057-.057h0l-.038-.038V1.668a.262.262,0,0,1-.057-.076h0a.824.824,0,0,1-.076-.133A2.37,2.37,0,0,1,117.889,0h9.544a10.744,10.744,0,0,1,6.356,1.765,6.184,6.184,0,0,1,2.524,5.047,5.845,5.845,0,0,1-1.556,4.08,8.5,8.5,0,0,1-2.6,1.765,9.549,9.549,0,0,1,3.112,1.537,7.348,7.348,0,0,1,2.77,5.882,7.117,7.117,0,0,1-1.708,4.744c-3.321,3.7-10.8,4.269-14.933,1.2a7.352,7.352,0,0,1-2.77-4.136h0a18.123,18.123,0,0,1-.512-4.155V4.362a4.751,4.751,0,0,1,2.751.342,3.241,3.241,0,0,1,1.2,2.96l-.019,10.208a10.206,10.206,0,0,0,1.271,5.161,5.2,5.2,0,0,0,2.6,2.258,6.9,6.9,0,0,0,6.091-.626c1.765-1.29,1.935-3.453,1.916-4.782a5.4,5.4,0,0,0-2.106-4.554,6.572,6.572,0,0,0-3.833-1.119h-3.472V11.648h3.795a4.138,4.138,0,0,0,.949-.209,3.481,3.481,0,0,0,1.5-.74,5.461,5.461,0,0,0,1.556-4.326c-.152-2.125-1.385-4.117-5.977-4.117H120.47Z" transform="translate(56.32 24.873)"/></g></svg>